<svg class="icon" width="102" height="119" viewBox="0 0 102 119" fill="none" xmlns="http://www.w3.org/2000/svg">
<path fill-rule="evenodd" clip-rule="evenodd" d="M51 35.2895C51.5683 35.2895 52.1134 35.0638 52.5152 34.6619C52.9171 34.2601 53.1429 33.715 53.1429 33.1467V8.31954L62.34 17.521C62.5392 17.7202 62.7758 17.8782 63.0361 17.9861C63.2964 18.0939 63.5754 18.1494 63.8571 18.1494C64.1389 18.1494 64.4179 18.0939 64.6782 17.9861C64.9385 17.8782 65.1751 17.7202 65.3743 17.521C65.5735 17.3217 65.7316 17.0852 65.8394 16.8249C65.9472 16.5646 66.0027 16.2856 66.0027 16.0038C66.0027 15.7221 65.9472 15.4431 65.8394 15.1828C65.7316 14.9224 65.5735 14.6859 65.3743 14.4867L52.5171 1.62954C52.3181 1.42999 52.0816 1.27166 51.8213 1.16363C51.5609 1.05561 51.2819 1 51 1C50.7181 1 50.439 1.05561 50.1787 1.16363C49.9184 1.27166 49.6819 1.42999 49.4829 1.62954L36.6257 14.4867C36.2233 14.8891 35.9973 15.4348 35.9973 16.0038C35.9973 16.5729 36.2233 17.1186 36.6257 17.521C37.0281 17.9233 37.5738 18.1494 38.1429 18.1494C38.7119 18.1494 39.2576 17.9233 39.66 17.521L48.8571 8.31954V33.1467C48.8571 33.715 49.0829 34.2601 49.4848 34.6619C49.8866 35.0638 50.4317 35.2895 51 35.2895ZM21 46.0038C21 45.4355 21.2258 44.8905 21.6276 44.4886C22.0295 44.0867 22.5745 43.861 23.1429 43.861H78.8571C79.4255 43.861 79.9705 44.0867 80.3724 44.4886C80.7742 44.8905 81 45.4355 81 46.0038C81 46.5721 80.7742 47.1172 80.3724 47.5191C79.9705 47.9209 79.4255 48.1467 78.8571 48.1467H23.1429C22.5745 48.1467 22.0295 47.9209 21.6276 47.5191C21.2258 47.1172 21 46.5721 21 46.0038Z" fill="white" />
<path d="M7.25 49.75C7.25 48.0924 7.90848 46.5027 9.08058 45.3306C10.2527 44.1585 11.8424 43.5 13.5 43.5H88.5C90.1576 43.5 91.7473 44.1585 92.9194 45.3306C94.0915 46.5027 94.75 48.0924 94.75 49.75H7.25ZM51 99.75C54.3152 99.75 57.4946 98.433 59.8388 96.0888C62.183 93.7446 63.5 90.5652 63.5 87.25C63.5 83.9348 62.183 80.7554 59.8388 78.4112C57.4946 76.067 54.3152 74.75 51 74.75C47.6848 74.75 44.5054 76.067 42.1612 78.4112C39.817 80.7554 38.5 83.9348 38.5 87.25C38.5 90.5652 39.817 93.7446 42.1612 96.0888C44.5054 98.433 47.6848 99.75 51 99.75Z" fill="white" />
<path d="M1 62.25C1 60.5924 1.65848 59.0027 2.83058 57.8306C4.00269 56.6585 5.5924 56 7.25 56H94.75C96.4076 56 97.9973 56.6585 99.1694 57.8306C100.342 59.0027 101 60.5924 101 62.25V112.25C101 113.908 100.342 115.497 99.1694 116.669C97.9973 117.842 96.4076 118.5 94.75 118.5H7.25C5.5924 118.5 4.00269 117.842 2.83058 116.669C1.65848 115.497 1 113.908 1 112.25V62.25ZM19.75 62.25C19.75 65.5652 18.433 68.7446 16.0888 71.0888C13.7446 73.433 10.5652 74.75 7.25 74.75V99.75C10.5652 99.75 13.7446 101.067 16.0888 103.411C18.433 105.755 19.75 108.935 19.75 112.25H82.25C82.25 108.935 83.567 105.755 85.9112 103.411C88.2554 101.067 91.4348 99.75 94.75 99.75V74.75C91.4348 74.75 88.2554 73.433 85.9112 71.0888C83.567 68.7446 82.25 65.5652 82.25 62.25H19.75Z" fill="white" />
</svg>