<svg class="icon" width="102" height="119" viewBox="0 0 102 119" fill="none" xmlns="http://www.w3.org/2000/svg">
<path d="M51 99.75C54.3152 99.75 57.4946 98.433 59.8388 96.0888C62.183 93.7446 63.5 90.5652 63.5 87.25C63.5 83.9348 62.183 80.7554 59.8388 78.4112C57.4946 76.067 54.3152 74.75 51 74.75C47.6848 74.75 44.5054 76.067 42.1612 78.4112C39.817 80.7554 38.5 83.9348 38.5 87.25C38.5 90.5652 39.817 93.7446 42.1612 96.0888C44.5054 98.433 47.6848 99.75 51 99.75Z" fill="white" />
<path d="M1 62.25C1 60.5924 1.65848 59.0027 2.83058 57.8306C4.00269 56.6585 5.5924 56 7.25 56H94.75C96.4076 56 97.9973 56.6585 99.1694 57.8306C100.342 59.0027 101 60.5924 101 62.25V112.25C101 113.908 100.342 115.497 99.1694 116.669C97.9973 117.842 96.4076 118.5 94.75 118.5H7.25C5.5924 118.5 4.00269 117.842 2.83058 116.669C1.65848 115.497 1 113.908 1 112.25V62.25ZM19.75 62.25C19.75 65.5652 18.433 68.7446 16.0888 71.0888C13.7446 73.433 10.5652 74.75 7.25 74.75V99.75C10.5652 99.75 13.7446 101.067 16.0888 103.411C18.433 105.755 19.75 108.935 19.75 112.25H82.25C82.25 108.935 83.567 105.755 85.9112 103.411C88.2554 101.067 91.4348 99.75 94.75 99.75V74.75C91.4348 74.75 88.2554 73.433 85.9112 71.0888C83.567 68.7446 82.25 65.5652 82.25 62.25H19.75Z" fill="white" />
<path fill-rule="evenodd" clip-rule="evenodd" d="M26.0029 37.9616C26.0029 38.3878 26.1722 38.7965 26.4735 39.0979C26.7749 39.3992 27.1836 39.5685 27.6098 39.5685H65.511L55.397 49.6794C55.0952 49.9811 54.9257 50.3904 54.9257 50.8171C54.9257 51.2438 55.0952 51.6531 55.397 51.9548C55.6987 52.2565 56.108 52.4261 56.5347 52.4261C56.9614 52.4261 57.3707 52.2565 57.6724 51.9548L70.5279 39.0993C70.6776 38.95 70.7963 38.7727 70.8773 38.5775C70.9583 38.3823 71 38.173 71 37.9616C71 37.7502 70.9583 37.5409 70.8773 37.3457C70.7963 37.1505 70.6776 36.9732 70.5279 36.8239L57.6724 23.9684C57.3707 23.6666 56.9614 23.4971 56.5347 23.4971C56.108 23.4971 55.6987 23.6666 55.397 23.9684C55.0952 24.2701 54.9257 24.6794 54.9257 25.1061C54.9257 25.5328 55.0952 25.9421 55.397 26.2438L65.511 36.3547H27.6098C27.1836 36.3547 26.7749 36.524 26.4735 36.8253C26.1722 37.1267 26.0029 37.5354 26.0029 37.9616ZM70.9971 15.4645C70.9971 15.8907 70.8278 16.2994 70.5265 16.6007C70.2251 16.9021 69.8164 17.0714 69.3902 17.0714H31.489L41.603 27.1823C41.7524 27.3317 41.8709 27.509 41.9518 27.7042C42.0327 27.8995 42.0743 28.1087 42.0743 28.32C42.0743 28.5313 42.0327 28.7405 41.9518 28.9357C41.8709 29.1309 41.7524 29.3083 41.603 29.4577C41.4536 29.6071 41.2762 29.7256 41.081 29.8065C40.8858 29.8873 40.6766 29.9289 40.4653 29.9289C40.254 29.9289 40.0448 29.8873 39.8496 29.8065C39.6544 29.7256 39.477 29.6071 39.3276 29.4577L26.4721 16.6022C26.3224 16.4529 26.2037 16.2756 26.1227 16.0804C26.0417 15.8851 26 15.6758 26 15.4645C26 15.2531 26.0417 15.0438 26.1227 14.8486C26.2037 14.6534 26.3224 14.476 26.4721 14.3268L39.3276 1.47126C39.6293 1.16952 40.0386 1 40.4653 1C40.892 1 41.3013 1.16952 41.603 1.47126C41.9048 1.773 42.0743 2.18224 42.0743 2.60897C42.0743 3.03569 41.9048 3.44494 41.603 3.74668L31.489 13.8575H69.3902C69.8164 13.8575 70.2251 14.0268 70.5265 14.3282C70.8278 14.6296 70.9971 15.0383 70.9971 15.4645Z" fill="white" />
</svg>