<svg class="icon" width="102" height="119" viewBox="0 0 102 119" fill="none" xmlns="http://www.w3.org/2000/svg">
<path fill-rule="evenodd" clip-rule="evenodd" d="M51 83.7105C50.4317 83.7105 49.8866 83.9362 49.4848 84.3381C49.0829 84.7399 48.8571 85.285 48.8571 85.8533L48.8571 110.68L39.66 101.479C39.4608 101.28 39.2242 101.122 38.9639 101.014C38.7036 100.906 38.4246 100.851 38.1429 100.851C37.8611 100.851 37.5821 100.906 37.3218 101.014C37.0615 101.122 36.8249 101.28 36.6257 101.479C36.4265 101.678 36.2684 101.915 36.1606 102.175C36.0528 102.435 35.9973 102.714 35.9973 102.996C35.9973 103.278 36.0528 103.557 36.1606 103.817C36.2684 104.078 36.4265 104.314 36.6257 104.513L49.4829 117.37C49.6819 117.57 49.9184 117.728 50.1787 117.836C50.4391 117.944 50.7181 118 51 118C51.2819 118 51.561 117.944 51.8213 117.836C52.0816 117.728 52.3181 117.57 52.5171 117.37L65.3743 104.513C65.7767 104.111 66.0027 103.565 66.0027 102.996C66.0027 102.427 65.7767 101.881 65.3743 101.479C64.9719 101.077 64.4262 100.851 63.8571 100.851C63.2881 100.851 62.7424 101.077 62.34 101.479L53.1429 110.68V85.8533C53.1429 85.285 52.9171 84.7399 52.5152 84.3381C52.1134 83.9362 51.5683 83.7105 51 83.7105ZM81 72.9962C81 73.5645 80.7742 74.1095 80.3724 74.5114C79.9705 74.9133 79.4255 75.139 78.8571 75.139H23.1429C22.5745 75.139 22.0295 74.9133 21.6276 74.5114C21.2258 74.1095 21 73.5645 21 72.9962C21 72.4279 21.2258 71.8828 21.6276 71.4809C22.0295 71.0791 22.5745 70.8533 23.1429 70.8533H78.8571C79.4255 70.8533 79.9705 71.0791 80.3724 71.4809C80.7742 71.8828 81 72.4279 81 72.9962Z" fill="white" />
<path d="M94.75 69.25C94.75 70.9076 94.0915 72.4973 92.9194 73.6694C91.7473 74.8415 90.1576 75.5 88.5 75.5L13.5 75.5C11.8424 75.5 10.2527 74.8415 9.08058 73.6694C7.90848 72.4973 7.25 70.9076 7.25 69.25L94.75 69.25ZM51 19.25C47.6848 19.25 44.5054 20.567 42.1612 22.9112C39.817 25.2554 38.5 28.4348 38.5 31.75C38.5 35.0652 39.817 38.2446 42.1612 40.5888C44.5054 42.933 47.6848 44.25 51 44.25C54.3152 44.25 57.4946 42.933 59.8388 40.5888C62.183 38.2446 63.5 35.0652 63.5 31.75C63.5 28.4348 62.183 25.2554 59.8388 22.9112C57.4946 20.567 54.3152 19.25 51 19.25Z" fill="white" />
<path d="M101 56.75C101 58.4076 100.342 59.9973 99.1694 61.1694C97.9973 62.3415 96.4076 63 94.75 63L7.25 63C5.5924 63 4.00268 62.3415 2.83058 61.1694C1.65848 59.9973 1 58.4076 1 56.75V6.75C1 5.0924 1.65848 3.50269 2.83058 2.33059C4.00268 1.15848 5.5924 0.5 7.25 0.5L94.75 0.5C96.4076 0.5 97.9973 1.15848 99.1694 2.33059C100.342 3.50269 101 5.0924 101 6.75V56.75ZM82.25 56.75C82.25 53.4348 83.567 50.2554 85.9112 47.9112C88.2554 45.567 91.4348 44.25 94.75 44.25V19.25C91.4348 19.25 88.2554 17.933 85.9112 15.5888C83.567 13.2446 82.25 10.0652 82.25 6.75L19.75 6.75C19.75 10.0652 18.433 13.2446 16.0888 15.5888C13.7446 17.933 10.5652 19.25 7.25 19.25V44.25C10.5652 44.25 13.7446 45.567 16.0888 47.9112C18.433 50.2554 19.75 53.4348 19.75 56.75L82.25 56.75Z" fill="white" />
</svg>