<svg width="131" height="215" viewBox="0 0 131 215" fill="none" xmlns="http://www.w3.org/2000/svg">
<rect width="131" height="215" rx="15" fill="url(#paint0_linear_9_11)"/>
<circle cx="27" cy="171" r="12" fill="#BF2525"/>
<circle cx="27" cy="187" r="12" fill="#E25B48"/>
<rect x="15" y="19" width="6" height="87" rx="3" fill="white" fill-opacity="0.19"/>
<rect x="25" y="19" width="6" height="41" rx="3" fill="white" fill-opacity="0.19"/>
<rect x="71" y="19" width="22" height="32" rx="5" fill="#BA9520"/>
<g clip-path="url(#clip0_9_11)">
<rect x="100" y="179" width="2.4" height="20" fill="white" fill-opacity="0.1"/>
<rect x="104" y="182" width="6.5" height="2.5" fill="white" fill-opacity="0.1"/>
<rect x="104" y="188" width="6.5" height="2.5" fill="white" fill-opacity="0.1"/>
<rect x="104" y="194" width="6.5" height="2.5" fill="white" fill-opacity="0.1"/>
<path d="M118.5 189L112.125 199.392V178.608L118.5 189Z" fill="white" fill-opacity="0.1"/>
</g>
<path d="M51.7273 20.5682L48.0966 22.8182V22.8864L51.7273 25.1364V26.3807L47.3636 23.6364L43 26.3807V25.1364L46.5625 22.8864V22.8182L43 20.5682V19.3239L47.3636 22.1364L51.7273 19.3239V20.5682ZM51.7273 28.2674L48.0966 30.5174V30.5856L51.7273 32.8356V34.0799L47.3636 31.3356L43 34.0799V32.8356L46.5625 30.5856V30.5174L43 28.2674V27.0231L47.3636 29.8356L51.7273 27.0231V28.2674ZM51.7273 35.9666L48.0966 38.2166V38.2848L51.7273 40.5348V41.7791L47.3636 39.0348L43 41.7791V40.5348L46.5625 38.2848V38.2166L43 35.9666V34.7223L47.3636 37.5348L51.7273 34.7223V35.9666ZM51.7273 43.6658L48.0966 45.9158V45.984L51.7273 48.234V49.4783L47.3636 46.734L43 49.4783V48.234L46.5625 45.984V45.9158L43 43.6658V42.4215L47.3636 45.234L51.7273 42.4215V43.6658ZM51.7273 58.1151L48.0966 60.3651V60.4332L51.7273 62.6832V63.9276L47.3636 61.1832L43 63.9276V62.6832L46.5625 60.4332V60.3651L43 58.1151V56.8707L47.3636 59.6832L51.7273 56.8707V58.1151ZM51.7273 65.8143L48.0966 68.0643V68.1325L51.7273 70.3825V71.6268L47.3636 68.8825L43 71.6268V70.3825L46.5625 68.1325V68.0643L43 65.8143V64.57L47.3636 67.3825L51.7273 64.57V65.8143ZM51.7273 73.5135L48.0966 75.7635V75.8317L51.7273 78.0817V79.326L47.3636 76.5817L43 79.326V78.0817L46.5625 75.8317V75.7635L43 73.5135V72.2692L47.3636 75.0817L51.7273 72.2692V73.5135ZM51.7273 81.2127L48.0966 83.4627V83.5309L51.7273 85.7809V87.0252L47.3636 84.2809L43 87.0252V85.7809L46.5625 83.5309V83.4627L43 81.2127V79.9684L47.3636 82.7809L51.7273 79.9684L51.7273 81.2127ZM51.7273 95.6619L48.0966 97.9119V97.9801L51.7273 100.23V101.474L47.3636 98.7301L43 101.474V100.23L46.5625 97.9801V97.9119L43 95.6619V94.4176L47.3636 97.2301L51.7273 94.4176V95.6619ZM51.7273 103.361L48.0966 105.611V105.679L51.7273 107.929V109.174L47.3636 106.429L43 109.174V107.929L46.5625 105.679V105.611L43 103.361V102.117L47.3636 104.929L51.7273 102.117V103.361ZM51.7273 111.06L48.0966 113.31V113.379L51.7273 115.629V116.873L47.3636 114.129L43 116.873V115.629L46.5625 113.379V113.31L43 111.06V109.816L47.3636 112.629L51.7273 109.816V111.06ZM51.7273 118.76L48.0966 121.01V121.078L51.7273 123.328V124.572L47.3636 121.828L43 124.572V123.328L46.5625 121.078V121.01L43 118.76V117.515L47.3636 120.328L51.7273 117.515V118.76Z" fill="white"/>
<path d="M111.184 21.4661L117.465 22.9529V23.7834L116.419 23.9731L110 22.3889V21.4968L111.184 21.4661ZM117.465 20.7021L111.184 21.9326L110 21.8301V20.8354L117.465 19.1794V20.7021ZM111.21 25.2805L117.465 26.4956V28.0183L110 26.3674V25.3728L111.21 25.2805ZM117.465 24.25L111.159 25.7471L110 25.7061V24.814L116.424 23.2195L117.465 23.4246V24.25ZM110 31.6708V30.0455L111.2 30.0558V31.6708C111.2 32.0741 111.29 32.4142 111.471 32.691C111.656 32.9679 111.924 33.1764 112.276 33.3165C112.628 33.4601 113.054 33.5318 113.553 33.5318H113.917C114.3 33.5318 114.636 33.4908 114.927 33.4088C115.218 33.3302 115.462 33.2123 115.66 33.055C115.858 32.8978 116.007 32.7047 116.106 32.4757C116.209 32.2467 116.26 31.9835 116.26 31.6861V30.0147H117.465V31.6861C117.465 32.1852 117.379 32.6415 117.208 33.055C117.041 33.472 116.8 33.8326 116.486 34.1368C116.171 34.441 115.795 34.6751 115.358 34.8392C114.924 35.0067 114.44 35.0904 113.907 35.0904H113.553C113.023 35.0904 112.54 35.0067 112.102 34.8392C111.665 34.6751 111.289 34.441 110.974 34.1368C110.663 33.836 110.422 33.4754 110.251 33.055C110.084 32.638 110 32.1766 110 31.6708ZM117.465 30.9171H110V29.379H117.465V30.9171ZM114.373 38.0917V38.8813C114.373 39.1342 114.416 39.3427 114.501 39.5068C114.59 39.6708 114.713 39.7922 114.871 39.8708C115.031 39.9528 115.218 39.9938 115.429 39.9938C115.621 39.9938 115.79 39.9562 115.937 39.8811C116.087 39.8093 116.204 39.6982 116.286 39.5478C116.371 39.3974 116.414 39.2077 116.414 38.9787C116.414 38.7976 116.378 38.6301 116.306 38.4763C116.234 38.3225 116.134 38.1994 116.004 38.1071C115.874 38.0148 115.717 37.9687 115.532 37.9687V36.487C115.942 36.487 116.299 36.5964 116.604 36.8151C116.908 37.0373 117.145 37.3347 117.316 37.7072C117.487 38.0798 117.573 38.4899 117.573 38.9377C117.573 39.4436 117.49 39.8862 117.326 40.2656C117.166 40.645 116.928 40.9406 116.614 41.1525C116.299 41.3645 115.91 41.4704 115.445 41.4704C115.209 41.4704 114.98 41.4157 114.758 41.3063C114.539 41.197 114.341 41.0397 114.163 40.8347C113.989 40.633 113.849 40.3869 113.743 40.0964C113.64 39.8059 113.589 39.4794 113.589 39.1171V38.0917H114.373ZM113.25 38.0917H114.014V39.1171C114.014 39.5239 113.968 39.8811 113.876 40.1887C113.784 40.4963 113.65 40.7543 113.476 40.9628C113.305 41.1713 113.102 41.3286 112.866 41.4345C112.634 41.5405 112.375 41.5935 112.092 41.5935C111.743 41.5935 111.432 41.5268 111.159 41.3935C110.889 41.2602 110.66 41.0722 110.472 40.8295C110.284 40.5903 110.14 40.31 110.041 39.9887C109.945 39.6674 109.897 39.3171 109.897 38.9377C109.897 38.6232 109.94 38.3139 110.026 38.0097C110.115 37.7089 110.246 37.4355 110.42 37.1894C110.598 36.9467 110.82 36.7519 111.087 36.6049C111.357 36.4614 111.677 36.3896 112.046 36.3896V37.8713C111.854 37.8713 111.683 37.9191 111.533 38.0148C111.383 38.1105 111.265 38.2421 111.179 38.4096C111.094 38.5805 111.051 38.7702 111.051 38.9787C111.051 39.2146 111.094 39.4162 111.179 39.5837C111.268 39.7546 111.391 39.8845 111.548 39.9733C111.709 40.0656 111.895 40.1118 112.107 40.1118C112.381 40.1118 112.599 40.0622 112.763 39.9631C112.931 39.864 113.054 39.7221 113.133 39.5375C113.211 39.353 113.25 39.1342 113.25 38.8813V38.0917ZM113.276 49.3495V47.432L114.332 47.4218V49.0316C114.332 49.3153 114.368 49.5478 114.44 49.7289C114.515 49.9101 114.623 50.0451 114.763 50.1339C114.906 50.2262 115.081 50.2724 115.286 50.2724C115.518 50.2724 115.706 50.2279 115.85 50.1391C115.993 50.0536 116.098 49.9186 116.163 49.734C116.228 49.5529 116.26 49.3188 116.26 49.0316V47.9652H110V46.4271H117.465V49.0316C117.465 49.4657 117.424 49.8537 117.342 50.1955C117.26 50.5407 117.135 50.8329 116.968 51.0722C116.8 51.3114 116.588 51.4943 116.332 51.6208C116.079 51.7472 115.778 51.8104 115.429 51.8104C115.122 51.8104 114.838 51.7404 114.578 51.6002C114.319 51.4635 114.107 51.2465 113.943 50.9491C113.779 50.6552 113.688 50.2707 113.671 49.7956L113.276 49.3495ZM110 49.2829V47.0116L111.2 47.6115V49.2829C111.2 49.5529 111.242 49.7733 111.328 49.9442C111.417 50.1151 111.536 50.2416 111.687 50.3236C111.837 50.4057 112.01 50.4467 112.205 50.4467C112.423 50.4467 112.613 50.4091 112.774 50.3339C112.934 50.2621 113.057 50.1459 113.143 49.9853C113.232 49.8246 113.276 49.6127 113.276 49.3495V47.8678L114.332 47.8781V49.7238L113.917 50.0775C113.924 50.5321 113.844 50.8979 113.676 51.1747C113.512 51.455 113.298 51.6583 113.035 51.7848C112.772 51.9147 112.49 51.9796 112.189 51.9796C111.711 51.9796 111.307 51.8754 110.979 51.6669C110.655 51.4584 110.41 51.1525 110.246 50.7492C110.082 50.3493 110 49.8605 110 49.2829ZM116.188 56.6934L110 54.6631V53.0276L117.465 55.8013V56.842L116.188 56.6934ZM110 58.3801L116.188 56.3447L117.465 56.1807V57.2317L110 60.0208V58.3801ZM112.779 58.2878H111.574V54.3452H112.779V58.2878ZM117.465 67.3133H110V65.7752L115.004 62.776H110V61.2379H117.465V62.776L112.456 65.7804H117.465V67.3133ZM117.465 70.7146H110V69.1765H117.465V70.7146ZM117.465 75.1853L113.779 72.227L111.943 70.5197L113.399 70.2429L114.978 71.3964L117.465 73.2985V75.1853ZM110 73.437L113.45 71.2375L114.404 72.3757L110 75.257V73.437Z" fill="white" fill-opacity="0.17"/>
<path d="M103 21.5496V20.6982L103.628 20.7036V21.5496C103.628 21.7608 103.676 21.939 103.771 22.084C103.867 22.229 104.008 22.3382 104.192 22.4116C104.377 22.4868 104.6 22.5244 104.861 22.5244H105.052C105.252 22.5244 105.429 22.5029 105.581 22.46C105.733 22.4188 105.861 22.357 105.965 22.2747C106.069 22.1923 106.147 22.0911 106.198 21.9712C106.252 21.8512 106.279 21.7134 106.279 21.5576V20.6821H106.91V21.5576C106.91 21.819 106.865 22.058 106.776 22.2747C106.688 22.4931 106.562 22.682 106.397 22.8413C106.233 23.0007 106.036 23.1233 105.806 23.2092C105.579 23.297 105.326 23.3408 105.046 23.3408H104.861C104.584 23.3408 104.33 23.297 104.101 23.2092C103.872 23.1233 103.675 23.0007 103.51 22.8413C103.347 22.6838 103.221 22.4949 103.132 22.2747C103.044 22.0562 103 21.8145 103 21.5496ZM106.91 21.1548H103V20.3491H106.91V21.1548ZM103.628 27.21H103V25.1287H103.628V27.21ZM106.91 25.3919H103V24.5863H106.91V25.3919ZM105.318 26.9388H104.705V25.1287H105.318V26.9388ZM106.91 27.2074H106.279V25.1287H106.91V27.2074ZM103.816 29.7499L106.91 30.6711V31.568L103 30.2065V29.6157L103.816 29.7499ZM106.91 28.9013L103.816 29.8198L103 29.9594V29.3632L106.91 28.0097V28.9013ZM104.716 36.1537V35.1493L105.269 35.1439V35.9872C105.269 36.1358 105.288 36.2575 105.326 36.3524C105.365 36.4473 105.421 36.518 105.495 36.5646C105.57 36.6129 105.661 36.6371 105.769 36.6371C105.891 36.6371 105.989 36.6138 106.064 36.5672C106.139 36.5225 106.194 36.4518 106.228 36.3551C106.262 36.2602 106.279 36.1376 106.279 35.9872V35.4286H103V34.6229H106.91V35.9872C106.91 36.2145 106.889 36.4178 106.846 36.5968C106.803 36.7776 106.737 36.9307 106.65 37.056C106.562 37.1813 106.451 37.2771 106.317 37.3434C106.184 37.4096 106.027 37.4427 105.844 37.4427C105.683 37.4427 105.534 37.406 105.398 37.3326C105.262 37.261 105.151 37.1473 105.065 36.9916C104.979 36.8376 104.932 36.6362 104.923 36.3873L104.716 36.1537ZM103 36.1188V34.9291L103.628 35.2433V36.1188C103.628 36.2602 103.651 36.3757 103.696 36.4652C103.742 36.5547 103.805 36.621 103.884 36.6639C103.962 36.7069 104.053 36.7284 104.155 36.7284C104.269 36.7284 104.369 36.7087 104.453 36.6693C104.537 36.6317 104.601 36.5708 104.646 36.4867C104.693 36.4025 104.716 36.2915 104.716 36.1537V35.3775L105.269 35.3829V36.3497L105.052 36.535C105.055 36.7731 105.013 36.9647 104.926 37.1097C104.84 37.2565 104.728 37.3631 104.59 37.4293C104.452 37.4973 104.304 37.5314 104.147 37.5314C103.896 37.5314 103.685 37.4768 103.513 37.3675C103.343 37.2583 103.215 37.0981 103.129 36.8868C103.043 36.6774 103 36.4213 103 36.1188ZM106.241 40.3854L103 39.322V38.4653L106.91 39.9182V40.4633L106.241 40.3854ZM103 41.269L106.241 40.2028L106.91 40.1169V40.6674L103 42.1284V41.269ZM104.456 41.2207H103.824V39.1555H104.456V41.2207ZM106.91 46.3333H103V45.5276L105.621 43.9566H103V43.1509H106.91V43.9566L104.286 45.5303H106.91V46.3333ZM106.91 48.4999H103V47.6942H106.91V48.4999ZM106.91 50.8417L104.979 49.2921L104.018 48.3978L104.781 48.2528L105.608 48.8571L106.91 49.8534V50.8417ZM103 49.9259L104.807 48.7738L105.307 49.37L103 50.8793V49.9259ZM106.91 52.7075H103V51.9045H106.91V52.7075ZM106.91 57.3045H103V56.4988L105.621 54.9278H103V54.1221H106.91V54.9278L104.286 56.5015H106.91V57.3045ZM105.044 61.7645H103.494C103.421 61.7037 103.341 61.6097 103.255 61.4826C103.171 61.3555 103.098 61.1916 103.038 60.9911C102.977 60.7906 102.946 60.548 102.946 60.2633C102.946 60.0109 102.987 59.7808 103.07 59.5731C103.154 59.3655 103.277 59.1864 103.438 59.036C103.599 58.8874 103.796 58.7729 104.029 58.6923C104.263 58.6117 104.531 58.5714 104.832 58.5714H105.076C105.377 58.5714 105.644 58.6099 105.879 58.6869C106.113 58.7657 106.311 58.8776 106.472 59.0226C106.634 59.1676 106.756 59.3404 106.84 59.5409C106.924 59.7414 106.967 59.9643 106.967 60.2096C106.967 60.5498 106.911 60.8291 106.8 61.0475C106.691 61.2659 106.539 61.4324 106.344 61.547C106.15 61.6634 105.928 61.735 105.677 61.7619V60.9804C105.81 60.9607 105.925 60.9231 106.024 60.8676C106.122 60.8121 106.199 60.7324 106.255 60.6286C106.31 60.5265 106.338 60.394 106.338 60.2311C106.338 60.0968 106.31 59.9769 106.255 59.8712C106.201 59.7674 106.122 59.6797 106.016 59.6081C105.91 59.5364 105.78 59.4818 105.624 59.4442C105.468 59.4066 105.287 59.3878 105.081 59.3878H104.832C104.627 59.3878 104.447 59.4075 104.289 59.4469C104.133 59.4863 104.002 59.5445 103.894 59.6215C103.789 59.7003 103.709 59.7969 103.655 59.9115C103.602 60.0261 103.575 60.1595 103.575 60.3117C103.575 60.4388 103.585 60.5444 103.607 60.6286C103.628 60.7145 103.654 60.7834 103.685 60.8354C103.717 60.8891 103.747 60.9302 103.776 60.9589H104.469V60.223H105.044V61.7645Z" fill="white" fill-opacity="0.17"/>
<defs>
<linearGradient id="paint0_linear_9_11" x1="124" y1="3.5" x2="-1.74102" y2="210.916" gradientUnits="userSpaceOnUse">
<stop stop-color="#015A86"/>
<stop offset="1" stop-color="#8B0A0D"/>
</linearGradient>
<clipPath id="clip0_9_11">
<rect width="22" height="23" fill="white" transform="translate(98 177)"/>
</clipPath>
</defs>
</svg>
